<svg width="36" height="26" viewBox="0 0 36 26" fill="none" xmlns="http://www.w3.org/2000/svg"><path d="M33.904 20.897 1.348 13.985c-.25-.053-.419.458-.289.865C3.139 21.39 8.066 26 13.8 26h19.421c.133 0 .248-.162.287-.399l.65-3.976c.055-.338-.067-.688-.254-.728ZM35.905 9.564c-.095-.28-.25-.467-.425-.511l-9-2.261c-.325-.08-.63.353-.675.971-.044.618.188 1.188.516 1.27l1.019.256c.149.038.26.277.26.56v1.748c0 .335-.155.598-.332.561l-2.4-.485c-.152-.029-.268-.272-.268-.56V6.165c0-.112.017-.22.05-.314l1.05-2.964c.12-.339.133-.773.036-1.136-.098-.364-.292-.601-.508-.62L12.628 0c-.202-.004-.398.16-.516.472 0 0-2.398 6.348-2.923 7.746-.063.167-.169.256-.277.234L.664 6.789c-.17-.034-.339.069-.465.282-.126.215-.199.52-.199.841 0 1.089.075 2.156.217 3.192.03.228.136.394.26.421l33.899 7.197c.143.03.278-.136.32-.396l1.278-7.82a2.025 2.025 0 0 0-.069-.942Zm-18.59-6.262-.468 6.175c-.023.3-.164.513-.324.483-1.17-.223-5.569-1.095-5.569-1.095-.228-.046-.345-.538-.212-.89l2.06-5.437c.06-.156.157-.245.26-.236l3.97.356c.177.016.308.314.283.644Zm6.505.824-.37 1.04a.953.953 0 0 0-.05.315v5.269c0 .336-.155.598-.332.562l-4.761-.961c-.169-.034-.29-.326-.266-.642l.486-6.402c.021-.288.156-.499.311-.485l4.746.426c.233.02.365.512.236.878Zm7.38 8.197c0 .336-.155.598-.332.562 0 0-1.245-.264-1.803-.389-.152-.032-.265-.274-.265-.56V10.3c0-.341.16-.606.34-.56l1.8.451c.148.039.26.278.26.561v1.57Zm3.314-.567-.223 1.361c-.042.258-.175.424-.318.396l-1.305-.264c-.152-.03-.268-.273-.268-.562v-1.48c0-.342.16-.606.34-.561l1.527.383c.183.046.301.392.247.727Z" fill="#011C40"/></svg>