<svg xmlns="http://www.w3.org/2000/svg" xmlns:xlink="http://www.w3.org/1999/xlink"><symbol id="check-desktop" viewBox="0 0 38 32"><g fill="none"><path d="M28.753 3.375 26.44 0 16.073 15.135l2.314 3.376L28.753 3.375ZM35.694 0 18.38 25.25l-6.819-9.948-2.313 3.376L18.379 32 38 3.375 35.694 0ZM0 18.678 9.132 32l2.314-3.375-9.132-13.323L0 18.678Z" fill="#011C40"/></g></symbol><symbol id="check-tablet" viewBox="0 0 27 26"><g fill="none"><path d="M20.43 2.742 18.786 0 11.42 12.297l1.644 2.743L20.43 2.742ZM25.362 0 13.059 20.515l-4.845-8.082-1.644 2.742L13.059 26 27 2.742 25.362 0ZM0 15.175 6.489 26l1.644-2.742-6.49-10.825L0 15.175Z" fill="#011C40"/></g></symbol><symbol id="icon-close" viewBox="0 0 20 20"><g fill="none"><path d="M.293 18.291a1 1 0 1 0 1.414 1.414L10 11.413l8.292 8.292a1 1 0 1 0 1.414-1.414l-8.292-8.292 8.292-8.292A1 1 0 1 0 18.291.293L9.999 8.585 1.707.293A1 1 0 1 0 .293 1.707L8.585 10 .293 18.291z"/></g></symbol><symbol id="ok-desktop" viewBox="0 0 12 20"><g fill="none"><path d="M5.875 3.025c1.196 0 2.168.96 2.168 2.138 0 1.175-.972 2.134-2.168 2.134-1.196 0-2.168-.958-2.168-2.134 0-1.179.972-2.138 2.168-2.138Zm0 7.298c2.888 0 5.237-2.316 5.237-5.16C11.112 2.315 8.763 0 5.875 0S.642 2.315.642 5.163c0 2.844 2.345 5.16 5.233 5.16Zm2.118 4.211a9.95 9.95 0 0 0 3.04-1.243 1.5 1.5 0 0 0 .482-2.084 1.545 1.545 0 0 0-2.118-.476 6.733 6.733 0 0 1-7.048 0 1.54 1.54 0 0 0-2.114.476 1.5 1.5 0 0 0 .483 2.084 9.95 9.95 0 0 0 3.04 1.243L.828 17.418a1.498 1.498 0 0 0 0 2.137 1.547 1.547 0 0 0 2.172 0l2.874-2.833 2.878 2.833a1.543 1.543 0 0 0 2.168 0 1.498 1.498 0 0 0 0-2.137l-2.928-2.884Z" fill="#F9FBFD"/></g></symbol><symbol id="ok-tablet" viewBox="0 0 10 16"><g fill="none"><path d="M4.822 2.42c.981 0 1.78.767 1.78 1.71 0 .94-.799 1.708-1.78 1.708s-1.78-.767-1.78-1.708c0-.943.799-1.71 1.78-1.71Zm0 5.838c2.37 0 4.298-1.852 4.298-4.127C9.12 1.851 7.193 0 4.822 0 2.452 0 .527 1.852.527 4.13c0 2.276 1.924 4.128 4.295 4.128Zm1.738 3.37a8.285 8.285 0 0 0 2.495-.995 1.183 1.183 0 0 0 .396-1.667 1.288 1.288 0 0 0-1.738-.381 5.648 5.648 0 0 1-5.785 0c-.588-.358-1.366-.188-1.735.38a1.183 1.183 0 0 0 .396 1.668c.777.469 1.62.801 2.495.994L.68 13.934a1.177 1.177 0 0 0 0 1.71 1.295 1.295 0 0 0 1.782 0l2.359-2.267 2.362 2.267a1.29 1.29 0 0 0 1.78 0c.49-.471.49-1.238 0-1.71L6.56 11.627Z" fill="#F9FBFD"/></g></symbol><symbol id="phone" viewBox="0 0 18 18"><g fill="none"><path d="M18 13.42v3.536a1 1 0 0 1-.93.998c-.437.03-.794.046-1.07.046C7.163 18 0 10.837 0 2c0-.276.015-.633.046-1.07A1 1 0 0 1 1.044 0H4.58a.5.5 0 0 1 .498.45c.023.23.044.413.064.552A13.9 13.9 0 0 0 6.35 5.003c.095.2.033.439-.147.567L4.045 7.112a13.047 13.047 0 0 0 6.844 6.844l1.54-2.154a.462.462 0 0 1 .573-.149 13.9 13.9 0 0 0 4 1.205c.139.02.322.042.55.064a.5.5 0 0 1 .449.498H18Z" fill="#011C40"/></g></symbol><symbol id="point" viewBox="0 0 18 22"><g fill="none"><path d="M15.364 15.556 9 22l-6.364-6.444a9.149 9.149 0 0 1-2.463-4.665 9.219 9.219 0 0 1 .512-5.266A9.09 9.09 0 0 1 4 1.535 8.921 8.921 0 0 1 9 0c1.78 0 3.52.534 5 1.536a9.089 9.089 0 0 1 3.315 4.09 9.22 9.22 0 0 1 .512 5.264 9.149 9.149 0 0 1-2.463 4.666ZM9 11.138c.53 0 1.04-.214 1.414-.594a2.038 2.038 0 0 0 0-2.864A1.988 1.988 0 0 0 9 7.089c-.53 0-1.04.213-1.414.593C7.21 8.06 7 8.576 7 9.113c0 .537.21 1.052.586 1.431.375.38.884.594 1.414.594Z" fill="#011C40"/></g></symbol><symbol id="reddit-desktop" viewBox="0 0 20 20"><g fill="none"><path d="M11.945 0c-.641 0-1.243.325-1.629.795-.386.469-.599 1.04-.754 1.643-.246.97-.322 2.045-.34 3.014-1.803.12-3.435.654-4.79 1.48-.55-.463-1.213-.72-1.848-.713-.724.007-1.41.319-1.921.96C-.313 8.4-.201 10.4.93 11.588a6.01 6.01 0 0 0-.122 1.123C.808 16.74 4.924 20 10 20c5.076 0 9.192-3.264 9.192-7.288 0-.38-.052-.756-.122-1.123 1.13-1.188 1.243-3.188.267-4.41-.51-.641-1.197-.953-1.92-.96-.636-.007-1.298.25-1.849.713-1.35-.822-2.972-1.357-4.766-1.48.025-.894.089-1.822.268-2.52.112-.439.246-.757.389-.932.143-.175.246-.247.486-.247.52 0 .587.168.9.576.158.205.34.462.632.712.292.25.724.466 1.192.466V1.753c-.131 0-.155-.003-.243-.082-.089-.079-.21-.26-.39-.493C13.678.708 12.982 0 11.947 0Zm5.058.164c-1.21 0-2.188 1.103-2.188 2.466 0 1.363.978 2.466 2.188 2.466 1.21 0 2.189-1.103 2.189-2.466 0-1.363-.98-2.466-2.189-2.466Zm0 .877c.778 0 1.41.712 1.41 1.59 0 .876-.632 1.588-1.41 1.588-.778 0-1.41-.712-1.41-1.589s.632-1.589 1.41-1.589ZM10 6.821c4.307 0 7.951 2.703 7.951 5.891 0 3.192-3.644 5.89-7.951 5.89-4.307 0-7.951-2.698-7.951-5.89 0-3.188 3.644-5.89 7.951-5.89Zm-7.392.795c.216.004.44.059.656.165-.78.668-1.4 1.435-1.823 2.301-.292-.678-.213-1.524.146-1.972a1.263 1.263 0 0 1 1.02-.494Zm14.784 0c.398-.003.76.165 1.021.494.36.448.438 1.294.146 1.972-.422-.866-1.042-1.633-1.823-2.301a1.55 1.55 0 0 1 .656-.165ZM6.888 9.808c-.779 0-1.41.713-1.41 1.59 0 .876.631 1.588 1.41 1.588.778 0 1.41-.712 1.41-1.589s-.632-1.589-1.41-1.589Zm6.225 0c-.779 0-1.41.713-1.41 1.59 0 .876.631 1.588 1.41 1.588.778 0 1.41-.712 1.41-1.589s-.632-1.589-1.41-1.589Zm-6.98 5.398C6.63 16.36 8.162 17.48 10 17.48s3.395-1.12 3.89-2.274c-.9.654-2.319 1.095-3.89 1.095-1.571 0-2.967-.441-3.866-1.095Z" fill="#F9FBFD"/></g></symbol><symbol id="reddit-tablet" viewBox="0 0 17 16"><g fill="none"><path d="M10.39 0c-.527 0-1.021.26-1.338.636-.317.375-.492.832-.619 1.315-.202.775-.264 1.635-.28 2.41-1.479.097-2.818.524-3.93 1.184-.452-.37-.996-.575-1.518-.57a2.024 2.024 0 0 0-1.576.767c-.801.979-.709 2.579.22 3.53a4.69 4.69 0 0 0-.1.898c0 3.222 3.377 5.83 7.544 5.83 4.166 0 7.544-2.611 7.544-5.83 0-.304-.043-.606-.1-.899.928-.95 1.02-2.55.22-3.529a2.024 2.024 0 0 0-1.577-.767c-.522-.005-1.066.2-1.517.57-1.108-.657-2.44-1.085-3.912-1.183.02-.715.072-1.458.22-2.017.092-.35.202-.605.319-.745.117-.14.202-.197.4-.197.426 0 .48.134.738.46.13.164.279.37.518.57.24.2.594.372.978.372V1.403c-.107 0-.127-.003-.2-.066-.072-.063-.171-.208-.319-.395C11.811.567 11.24 0 10.39 0Zm4.15.132c-.993 0-1.796.882-1.796 1.972 0 1.09.803 1.973 1.796 1.973s1.797-.882 1.797-1.973c0-1.09-.804-1.972-1.797-1.972Zm0 .7c.639 0 1.158.57 1.158 1.272 0 .701-.519 1.271-1.158 1.271-.638 0-1.157-.57-1.157-1.27 0-.702.519-1.272 1.157-1.272ZM8.793 5.459c3.535 0 6.526 2.161 6.526 4.712 0 2.553-2.992 4.712-6.526 4.712-3.535 0-6.527-2.159-6.527-4.712 0-2.55 2.992-4.712 6.527-4.712Zm-6.068.635c.178.003.362.047.54.132-.642.534-1.15 1.148-1.498 1.84-.24-.542-.174-1.218.12-1.577.215-.263.512-.398.838-.395Zm12.135 0c.326-.003.623.132.838.395.294.359.36 1.035.12 1.578-.347-.693-.856-1.307-1.497-1.841.177-.085.361-.13.539-.132ZM6.238 7.847c-.639 0-1.158.57-1.158 1.27 0 .702.52 1.272 1.158 1.272.639 0 1.157-.57 1.157-1.271 0-.702-.518-1.271-1.157-1.271Zm5.11 0c-.64 0-1.159.57-1.159 1.27 0 .702.52 1.272 1.158 1.272.639 0 1.158-.57 1.158-1.271 0-.702-.52-1.271-1.158-1.271Zm-5.729 4.317c.407.924 1.664 1.82 3.174 1.82 1.509 0 2.786-.896 3.193-1.82-.739.524-1.904.877-3.193.877-1.29 0-2.435-.353-3.174-.877Z" fill="#F9FBFD"/></g></symbol><symbol id="ship-desktop" viewBox="0 0 27 32"><g fill="none"><path d="m4.405 16.396 8.811-6.46a.6.6 0 0 1 .655 0l8.854 6.46V8.688c.049-1.057-.75-1.954-1.785-2.003l-.047-.002H6.237c-1.035.024-1.856.9-1.833 1.958l.001.047v7.708ZM15.746 0h-4.362v5.347h4.362V0Z" fill="#011C40"/><path d="M24.296 30.164 27 21.03l-3.795-2.718-.262-.134-8.941-6.37v18.801h-.48l-.83-.044V11.807L0 21.03l2.792 9.09 1.612 1.87h2.754s5.089.007 6.364 0c1.298.022 3.603 0 3.603 0h5.688l1.483-1.826Z" fill="#011C40"/></g></symbol><symbol id="ship-laft-tablet" viewBox="0 0 36 26"><g fill="none"><path d="M33.904 20.897 1.348 13.985c-.25-.053-.419.458-.289.865C3.139 21.39 8.066 26 13.8 26h19.421c.133 0 .248-.162.287-.399l.65-3.976c.055-.338-.067-.688-.254-.728ZM35.905 9.564c-.095-.28-.25-.467-.425-.511l-9-2.261c-.325-.08-.63.353-.675.971-.044.618.188 1.188.516 1.27l1.019.256c.149.038.26.277.26.56v1.748c0 .335-.155.598-.332.561l-2.4-.485c-.152-.029-.268-.272-.268-.56V6.165c0-.112.017-.22.05-.314l1.05-2.964c.12-.339.133-.773.036-1.136-.098-.364-.292-.601-.508-.62L12.628 0c-.202-.004-.398.16-.516.472 0 0-2.398 6.348-2.923 7.746-.063.167-.169.256-.277.234L.664 6.789c-.17-.034-.339.069-.465.282-.126.215-.199.52-.199.841 0 1.089.075 2.156.217 3.192.03.228.136.394.26.421l33.899 7.197c.143.03.278-.136.32-.396l1.278-7.82a2.025 2.025 0 0 0-.069-.942Zm-18.59-6.262-.468 6.175c-.023.3-.164.513-.324.483-1.17-.223-5.569-1.095-5.569-1.095-.228-.046-.345-.538-.212-.89l2.06-5.437c.06-.156.157-.245.26-.236l3.97.356c.177.016.308.314.283.644Zm6.505.824-.37 1.04a.953.953 0 0 0-.05.315v5.269c0 .336-.155.598-.332.562l-4.761-.961c-.169-.034-.29-.326-.266-.642l.486-6.402c.021-.288.156-.499.311-.485l4.746.426c.233.02.365.512.236.878Zm7.38 8.197c0 .336-.155.598-.332.562 0 0-1.245-.264-1.803-.389-.152-.032-.265-.274-.265-.56V10.3c0-.341.16-.606.34-.56l1.8.451c.148.039.26.278.26.561v1.57Zm3.314-.567-.223 1.361c-.042.258-.175.424-.318.396l-1.305-.264c-.152-.03-.268-.273-.268-.562v-1.48c0-.342.16-.606.34-.561l1.527.383c.183.046.301.392.247.727Z" fill="#011C40"/></g></symbol><symbol id="ship-left-desktop" viewBox="0 0 44 32"><g fill="none"><path d="M41.439 25.72 1.648 17.212c-.306-.066-.512.563-.354 1.064C3.838 26.326 9.858 32 16.867 32h23.737c.161 0 .303-.199.35-.491l.794-4.894c.068-.415-.081-.847-.31-.895ZM43.884 11.771c-.116-.345-.306-.575-.52-.629l-11-2.783c-.396-.098-.77.434-.824 1.196-.054.76.229 1.462.63 1.563l1.245.315c.182.046.319.34.319.689v2.15c0 .414-.19.737-.406.692l-2.933-.597c-.187-.036-.328-.335-.328-.69v-6.09c0-.138.021-.271.061-.385l1.282-3.648a2.5 2.5 0 0 0 .045-1.399c-.12-.448-.356-.74-.62-.764l-15.4-1.39c-.248-.005-.487.197-.632.58 0 0-2.93 7.815-3.573 9.534-.077.206-.206.316-.338.288L.812 8.355c-.21-.041-.415.085-.57.348C.09 8.968 0 9.343 0 9.738c0 1.34.092 2.654.265 3.928.038.281.167.486.319.52l41.431 8.857c.175.037.34-.167.392-.488l1.56-9.625c.064-.39.033-.815-.083-1.159ZM21.163 4.064l-.572 7.6c-.028.369-.2.632-.396.594-1.431-.274-6.806-1.347-6.806-1.347-.28-.057-.423-.662-.26-1.096l2.519-6.691c.072-.192.191-.302.316-.29l4.853.437c.216.02.376.387.346.793Zm7.95 1.015-.451 1.28c-.04.114-.062.249-.062.386v6.486c0 .413-.19.736-.405.691l-5.82-1.183c-.206-.041-.354-.4-.324-.79l.593-7.879c.026-.355.191-.614.38-.597l5.801.525c.285.025.446.63.288 1.08Zm9.02 10.088c0 .414-.189.736-.405.692 0 0-1.523-.326-2.205-.479-.184-.04-.323-.338-.323-.69v-2.012c0-.42.195-.746.415-.69l2.2.556c.182.048.318.343.318.69v1.933Zm4.05-.698-.271 1.675c-.052.317-.215.522-.39.487l-1.595-.324c-.185-.038-.327-.337-.327-.692v-1.822c0-.42.195-.746.415-.69l1.867.471c.224.057.368.483.302.895Z" fill="#011C40"/></g></symbol><symbol id="ship-tablet" viewBox="0 0 21 26"><g fill="none"><path d="m3.426 13.322 6.854-5.25a.45.45 0 0 1 .508 0l6.887 5.25V7.059c.038-.859-.584-1.587-1.389-1.628H4.851c-.805.018-1.444.73-1.426 1.59l.001.038v6.263ZM12.247 0H8.855v4.344h3.392V0Z" fill="#011C40"/><path d="M18.897 24.508 21 17.087l-2.951-2.208-.204-.109-6.955-5.177V24.87h-.373l-.645-.036V9.594L0 17.086l2.171 7.385 1.254 1.52h2.142s3.958.005 4.95 0c1.01.018 2.803 0 2.803 0h4.423l1.154-1.484Z" fill="#011C40"/></g></symbol><symbol id="votix-desktop" viewBox="0 0 20 20"><g fill="none"><path d="M19.559 9.557h.004a.436.436 0 0 0 .435-.476A10.026 10.026 0 0 0 10.921 0a.437.437 0 0 0-.476.44c.076 6.408.921 9.027 9.114 9.116Zm0 .886c-8.193.09-9.038 2.707-9.114 9.115a.437.437 0 0 0 .477.44 10.025 10.025 0 0 0 9.076-9.08.437.437 0 0 0-.44-.475ZM9.049.003A10.03 10.03 0 0 0 .003 9.083a.436.436 0 0 0 .435.476h.005C8.608 9.464 9.451 6.847 9.528.443a.438.438 0 0 0-.478-.44ZM.443 10.444c-.136-.016-.243.049-.326.14a.438.438 0 0 0-.114.335 10.03 10.03 0 0 0 9.089 9.08.437.437 0 0 0 .436-.442c-.077-6.403-.92-9.02-9.085-9.114Z" fill="#F9FBFD"/></g></symbol><symbol id="votix-tablet" viewBox="0 0 17 16"><g fill="none"><path d="M16.062 7.646h.004c.1 0 .196-.041.263-.113a.345.345 0 0 0 .094-.268C16.063 3.407 12.93.353 8.973 0a.37.37 0 0 0-.276.092.345.345 0 0 0-.115.26c.062 5.126.756 7.221 7.48 7.293Zm0 .708c-6.724.072-7.417 2.166-7.48 7.293a.345.345 0 0 0 .115.26.366.366 0 0 0 .276.092c3.958-.352 7.09-3.406 7.45-7.264a.344.344 0 0 0-.094-.268.383.383 0 0 0-.267-.113ZM7.437.003C3.492.364.369 3.419.01 7.265a.343.343 0 0 0 .094.269.362.362 0 0 0 .263.112h.004C7.074 7.571 7.766 5.477 7.83.355a.346.346 0 0 0-.115-.261.367.367 0 0 0-.277-.091ZM.372 8.353c-.111-.012-.199.04-.267.113a.345.345 0 0 0-.094.268c.358 3.847 3.481 6.901 7.426 7.263a.364.364 0 0 0 .277-.091.346.346 0 0 0 .115-.261c-.063-5.123-.755-7.216-7.457-7.291Z" fill="#F9FBFD"/></g></symbol></svg>