<svg width="10" height="16" viewBox="0 0 10 16" fill="none" xmlns="http://www.w3.org/2000/svg"><path d="M4.822 2.42c.981 0 1.78.767 1.78 1.71 0 .94-.799 1.708-1.78 1.708s-1.78-.767-1.78-1.708c0-.943.799-1.71 1.78-1.71Zm0 5.838c2.37 0 4.298-1.852 4.298-4.127C9.12 1.851 7.193 0 4.822 0 2.452 0 .527 1.852.527 4.13c0 2.276 1.924 4.128 4.295 4.128Zm1.738 3.37a8.285 8.285 0 0 0 2.495-.995 1.183 1.183 0 0 0 .396-1.667 1.288 1.288 0 0 0-1.738-.381 5.648 5.648 0 0 1-5.785 0c-.588-.358-1.366-.188-1.735.38a1.183 1.183 0 0 0 .396 1.668c.777.469 1.62.801 2.495.994L.68 13.934a1.177 1.177 0 0 0 0 1.71 1.295 1.295 0 0 0 1.782 0l2.359-2.267 2.362 2.267a1.29 1.29 0 0 0 1.78 0c.49-.471.49-1.238 0-1.71L6.56 11.627Z" fill="#F9FBFD"/></svg>