<svg width="17" height="16" viewBox="0 0 17 16" fill="none" xmlns="http://www.w3.org/2000/svg"><path d="M10.39 0c-.527 0-1.021.26-1.338.636-.317.375-.492.832-.619 1.315-.202.775-.264 1.635-.28 2.41-1.479.097-2.818.524-3.93 1.184-.452-.37-.996-.575-1.518-.57a2.024 2.024 0 0 0-1.576.767c-.801.979-.709 2.579.22 3.53a4.69 4.69 0 0 0-.1.898c0 3.222 3.377 5.83 7.544 5.83 4.166 0 7.544-2.611 7.544-5.83 0-.304-.043-.606-.1-.899.928-.95 1.02-2.55.22-3.529a2.024 2.024 0 0 0-1.577-.767c-.522-.005-1.066.2-1.517.57-1.108-.657-2.44-1.085-3.912-1.183.02-.715.072-1.458.22-2.017.092-.35.202-.605.319-.745.117-.14.202-.197.4-.197.426 0 .48.134.738.46.13.164.279.37.518.57.24.2.594.372.978.372V1.403c-.107 0-.127-.003-.2-.066-.072-.063-.171-.208-.319-.395C11.811.567 11.24 0 10.39 0Zm4.15.132c-.993 0-1.796.882-1.796 1.972 0 1.09.803 1.973 1.796 1.973s1.797-.882 1.797-1.973c0-1.09-.804-1.972-1.797-1.972Zm0 .7c.639 0 1.158.57 1.158 1.272 0 .701-.519 1.271-1.158 1.271-.638 0-1.157-.57-1.157-1.27 0-.702.519-1.272 1.157-1.272ZM8.793 5.459c3.535 0 6.526 2.161 6.526 4.712 0 2.553-2.992 4.712-6.526 4.712-3.535 0-6.527-2.159-6.527-4.712 0-2.55 2.992-4.712 6.527-4.712Zm-6.068.635c.178.003.362.047.54.132-.642.534-1.15 1.148-1.498 1.84-.24-.542-.174-1.218.12-1.577.215-.263.512-.398.838-.395Zm12.135 0c.326-.003.623.132.838.395.294.359.36 1.035.12 1.578-.347-.693-.856-1.307-1.497-1.841.177-.085.361-.13.539-.132ZM6.238 7.847c-.639 0-1.158.57-1.158 1.27 0 .702.52 1.272 1.158 1.272.639 0 1.157-.57 1.157-1.271 0-.702-.518-1.271-1.157-1.271Zm5.11 0c-.64 0-1.159.57-1.159 1.27 0 .702.52 1.272 1.158 1.272.639 0 1.158-.57 1.158-1.271 0-.702-.52-1.271-1.158-1.271Zm-5.729 4.317c.407.924 1.664 1.82 3.174 1.82 1.509 0 2.786-.896 3.193-1.82-.739.524-1.904.877-3.193.877-1.29 0-2.435-.353-3.174-.877Z" fill="#F9FBFD"/></svg>