<svg width="17" height="16" viewBox="0 0 17 16" fill="none" xmlns="http://www.w3.org/2000/svg"><path d="M16.062 7.646h.004c.1 0 .196-.041.263-.113a.345.345 0 0 0 .094-.268C16.063 3.407 12.93.353 8.973 0a.37.37 0 0 0-.276.092.345.345 0 0 0-.115.26c.062 5.126.756 7.221 7.48 7.293Zm0 .708c-6.724.072-7.417 2.166-7.48 7.293a.345.345 0 0 0 .115.26.366.366 0 0 0 .276.092c3.958-.352 7.09-3.406 7.45-7.264a.344.344 0 0 0-.094-.268.383.383 0 0 0-.267-.113ZM7.437.003C3.492.364.369 3.419.01 7.265a.343.343 0 0 0 .094.269.362.362 0 0 0 .263.112h.004C7.074 7.571 7.766 5.477 7.83.355a.346.346 0 0 0-.115-.261.367.367 0 0 0-.277-.091ZM.372 8.353c-.111-.012-.199.04-.267.113a.345.345 0 0 0-.094.268c.358 3.847 3.481 6.901 7.426 7.263a.364.364 0 0 0 .277-.091.346.346 0 0 0 .115-.261c-.063-5.123-.755-7.216-7.457-7.291Z" fill="#F9FBFD"/></svg>